HIERARCHY
ROOT Hips
{
	OFFSET 0.00000 0.00000 0.00000
	CHANNELS 6 Xposition Yposition Zposition Zrotation Yrotation Xrotation 
	JOINT LHipJoint
	{
		OFFSET 0 0 0
		CHANNELS 3 Zrotation Yrotation Xrotation
		JOINT LeftHip
		{
			OFFSET 1.75344 -1.53157 0.77399
			CHANNELS 3 Zrotation Yrotation Xrotation
			JOINT LeftKnee
			{
				OFFSET 2.25415 -6.19323 0.00000
				CHANNELS 3 Zrotation Yrotation Xrotation
				JOINT LeftAnkle
				{
					OFFSET 2.30342 -6.32861 0.00000
					CHANNELS 3 Zrotation Yrotation Xrotation
					JOINT LeftToe
					{
						OFFSET 0.10958 -0.30108 1.49206
						CHANNELS 3 Zrotation Yrotation Xrotation
						End Site
						{
							OFFSET 0.00000 -0.00000 0.77783
						}
					}
				}
			}
		}
	}
	JOINT RHipJoint
	{
		OFFSET 0 0 0
		CHANNELS 3 Zrotation Yrotation Xrotation
		JOINT RightHip
		{
			OFFSET -1.81912 -1.53156 0.77399
			CHANNELS 3 Zrotation Yrotation Xrotation
			JOINT RightKnee
			{
				OFFSET -2.22882 -6.12365 0.00000
				CHANNELS 3 Zrotation Yrotation Xrotation
				JOINT RightAnkle
				{
					OFFSET -2.21943 -6.09785 0.00000
					CHANNELS 3 Zrotation Yrotation Xrotation
					JOINT RightToe
					{
						OFFSET -0.18931 -0.52012 1.59379
						CHANNELS 3 Zrotation Yrotation Xrotation
						End Site
						{
							OFFSET -0.00000 -0.00000 0.84686
						}
					}
				}
			}
		}
	}
	JOINT lowerback
	{
		OFFSET 0 0 0
		CHANNELS 3 Zrotation Yrotation Xrotation
		JOINT Chest
		{
			OFFSET -0.00200 1.66634 -0.14248
			CHANNELS 3 Zrotation Yrotation Xrotation
			JOINT Chest2
			{
				OFFSET -0.00875 1.64542 0.09514
				CHANNELS 3 Zrotation Yrotation Xrotation
				JOINT lowerneck
				{
					OFFSET 0 0 0
					CHANNELS 3 Zrotation Yrotation Xrotation
					JOINT Neck
					{
						OFFSET 0.02257 1.59605 0.00839
						CHANNELS 3 Zrotation Yrotation Xrotation
						JOINT Head
						{
							OFFSET -0.10214 1.57530 -0.23335
							CHANNELS 3 Zrotation Yrotation Xrotation
							End Site
							{
								OFFSET -0.03588 1.60717 -0.08062
							}
						}
					}
				}
				JOINT LeftCollar
				{
					OFFSET 0 0 0
					CHANNELS 3 Zrotation Yrotation Xrotation
					JOINT LeftShoulder
					{
						OFFSET 2.54983 1.10186 0.40078
CHANNELS 3 Zrotation Xrotation Yrotation
						JOINT LeftElbow
						{
OFFSET 0 -4.288400 0.000000
CHANNELS 3 Zrotation Xrotation Yrotation
							JOINT LeftWrist
							{
OFFSET 0 -3.065520 -0.000000
CHANNELS 3 Zrotation Xrotation Yrotation
								JOINT lhand
								{
									OFFSET 0 0 0
CHANNELS 3 Zrotation Xrotation Yrotation
									JOINT LFingers
									{
OFFSET 0 -0.753040 0.000000
CHANNELS 3 Zrotation Xrotation Yrotation
										End Site
										{
OFFSET 0 -0.607120 0.000000
										}
									}
								}
								JOINT LThumb
								{
OFFSET 0 0.000000 0.000000
CHANNELS 3 Zrotation Xrotation Yrotation
									End Site
									{
OFFSET 0 -0.616390 0.616390
									}
								}
							}
						}
					}
				}
				JOINT RightCollar
				{
					OFFSET 0 0 0
					CHANNELS 3 Zrotation Yrotation Xrotation
					JOINT RightShoulder
					{
						OFFSET -2.60909 1.35448 0.21802
CHANNELS 3 Zrotation Xrotation Yrotation
						JOINT RightElbow
						{
OFFSET 0 -4.521720 -0.000000
CHANNELS 3 Zrotation Xrotation Yrotation
							JOINT RightWrist
							{
OFFSET 0 -2.891400 0.000000
CHANNELS 3 Zrotation Xrotation Yrotation
								JOINT rhand
								{
									OFFSET 0 0 0
CHANNELS 3 Zrotation Xrotation Yrotation
									JOINT RFingers
									{
OFFSET 0 -0.680540 0.000000
CHANNELS 3 Zrotation Xrotation Yrotation
										End Site
										{
OFFSET 0 -0.548670 0.000000
										}
									}
								}
								JOINT RThumb
								{
OFFSET 0 0.000000 0.000000
CHANNELS 3 Zrotation Xrotation Yrotation
									End Site
									{
OFFSET 0 -0.557050 0.557050
									}
								}
							}
						}
					}
				}
			}
		}
	}
}
MOTION
Frames: 10
Frame Time: 0.008333333333333333
7.708800 15.545200 22.407200 -179.285000 6.920600 -178.712000 0.000000 0.000000 0.000000 -25.936200 -24.602200 4.581700 1.274800 7.155800 20.177700 1.368200 13.080700 -30.247900 0.088500 -1.918200 -5.279700 0.000000 0.000000 0.000000 27.490100 20.674300 8.314800 -0.409100 -4.105900 11.374900 1.720700 -26.359800 -25.078400 -0.002000 -0.288900 0.793700 0.632100 1.780000 8.901200 0.254000 2.640000 -5.440500 -0.569800 1.285800 -10.836500 -7.269000 -2.471700 -4.601800 7.352900 -3.113100 2.900400 3.625000 -1.459900 2.023900 0.000000 0.000000 0.000000 3.247500 19.517800 -36.955400 19.966300 -30.601700 5.514200 0.403400 9.620000 33.027200 0.000000 0.000000 0.000000 -7.125000 0.000000 0.000000 -17.574700 -1.720800 -19.000900 0.000000 0.000000 0.000000 -4.927400 19.762200 46.266200 -20.960800 -31.782600 -6.029300 -5.796900 20.127800 55.117000 0.000000 0.000000 0.000000 7.125000 0.000000 -0.000000 76.759200 73.919200 -59.979900
7.710337 15.545584 22.408542 -179.305469 6.689879 -178.703053 0.000000 0.000000 0.000000 -25.928260 -24.661739 4.549986 1.274890 7.155985 20.178197 1.359056 13.009110 -30.127323 0.090018 -1.931649 -5.316903 0.000000 0.000000 0.000000 27.476419 20.585563 8.290110 -0.408442 -4.102631 11.365452 1.709844 -26.387214 -25.251178 -0.003805 -0.396530 1.089504 0.682979 1.726160 8.640001 0.221452 2.556872 -5.267959 -0.603578 1.241512 -10.483628 -7.370577 -2.470348 -4.517905 7.497049 -3.100006 2.565297 3.694405 -1.451979 1.903077 0.000000 0.000000 0.000000 3.239353 19.322407 -36.796148 19.987267 -30.626951 5.524894 0.640885 9.426044 32.794877 0.000000 0.000000 0.000000 -7.125000 0.000000 0.000000 -17.443908 -1.518509 -18.783627 0.000000 0.000000 0.000000 -4.981452 19.476315 46.581874 -20.852039 -31.655156 -5.972109 -6.160312 20.437677 54.818953 0.000000 0.000000 0.000000 7.125000 0.000000 0.000000 75.614110 73.995268 -58.970081
7.711900 15.546763 22.408837 -179.352841 6.491785 -178.674386 0.000000 0.000000 0.000000 -25.952627 -24.723671 4.521538 1.271000 7.145427 20.146945 1.319320 13.088038 -29.933729 0.131916 -2.339299 -6.444296 0.000000 0.000000 0.000000 27.431986 20.588532 8.273802 -0.408632 -4.103759 11.368665 1.687987 -26.402802 -25.502360 -0.007178 -0.545156 1.497989 0.623870 1.701264 8.631576 0.235343 2.516532 -5.259767 -0.548035 1.226889 -10.472984 -7.513511 -2.467800 -4.473943 7.596097 -3.090780 2.486537 3.757668 -1.447538 1.874530 0.000000 0.000000 0.000000 3.159799 19.370123 -36.652916 20.003801 -30.646890 5.533303 0.604162 9.446930 32.879772 0.000000 0.000000 0.000000 -7.125000 0.000000 0.000000 -17.464732 -1.596520 -18.832170 0.000000 0.000000 0.000000 -5.109405 19.502414 46.857545 -20.763213 -31.550895 -5.925549 -6.495677 20.715241 54.698685 0.000000 0.000000 0.000000 7.125000 0.000000 0.000000 75.083208 74.093049 -58.576957
7.713873 15.549226 22.408600 -179.346850 6.330834 -178.554404 0.000000 0.000000 0.000000 -25.891419 -24.884379 4.422865 1.268964 7.139917 20.130683 1.303352 13.158352 -29.889392 0.153932 -2.528330 -6.968132 0.000000 0.000000 0.000000 27.391961 20.567167 8.138861 -0.407684 -4.098959 11.355262 1.672497 -26.381842 -25.603394 -0.011709 -0.695392 1.911171 0.616468 1.704463 8.544762 0.243551 2.521892 -5.268995 -0.533133 1.231877 -10.432056 -7.552285 -2.476050 -4.520977 7.607588 -3.097258 2.487577 3.768992 -1.450200 1.885390 0.000000 0.000000 0.000000 3.107461 19.363033 -36.538095 20.026649 -30.674364 5.544972 0.216391 9.573880 32.934163 0.000000 0.000000 0.000000 -7.125000 0.000000 0.000000 -17.674304 -1.617437 -19.088025 0.000000 0.000000 0.000000 -5.132712 19.534231 46.868666 -20.651044 -31.418678 -5.867033 -7.356792 21.732826 54.169090 0.000000 0.000000 0.000000 7.125000 0.000000 0.000000 72.923206 74.289496 -56.765418
7.715110 15.551052 22.408810 -179.320269 6.236342 -178.420771 0.000000 0.000000 0.000000 -25.783005 -24.949945 4.272394 1.267001 7.134596 20.114789 1.312773 13.051467 -29.859234 0.140878 -2.416180 -6.657415 0.000000 0.000000 0.000000 27.352899 20.521043 7.958053 -0.406790 -4.094432 11.342465 1.682351 -26.378534 -25.499802 -0.013601 -0.751506 2.065436 0.712771 1.745671 8.310677 0.195353 2.580946 -5.210362 -0.638418 1.253718 -10.219509 -7.449585 -2.504731 -4.582108 7.549816 -3.136364 2.504749 3.726703 -1.468469 1.901423 0.000000 0.000000 0.000000 3.177521 19.228851 -36.558631 20.029737 -30.678133 5.546534 0.091431 9.433796 33.044524 0.000000 0.000000 0.000000 -7.125000 0.000000 0.000000 -17.742762 -1.712709 -19.198954 0.000000 0.000000 0.000000 -5.019240 19.471703 46.762624 -20.674207 -31.445624 -5.879283 -8.046527 22.283623 53.922443 0.000000 0.000000 0.000000 7.125000 0.000000 0.000000 71.808930 74.483860 -55.942257
7.715926 15.551400 22.409047 -179.298905 6.209279 -178.351905 0.000000 0.000000 0.000000 -25.732081 -24.975785 4.212546 1.265374 7.130333 20.102051 1.313787 12.982916 -29.806124 0.132541 -2.345536 -6.461717 0.000000 0.000000 0.000000 27.337424 20.512656 7.851537 -0.406447 -4.092784 11.337806 1.725413 -26.469019 -25.294409 -0.009612 -0.629944 1.731162 0.814457 1.813260 8.243793 0.132817 2.678101 -5.198894 -0.775695 1.291592 -10.157901 -7.392252 -2.517677 -4.598268 7.564075 -3.158432 2.568218 3.720053 -1.477683 1.926189 0.000000 0.000000 0.000000 3.294125 19.232645 -36.598081 20.033426 -30.682603 5.548368 0.315921 9.170657 33.343808 0.000000 0.000000 0.000000 -7.125000 0.000000 0.000000 -17.625674 -2.015636 -19.151563 0.000000 0.000000 0.000000 -4.908672 19.531528 46.757700 -20.957978 -31.779127 -6.027889 -7.718810 21.484458 54.800166 0.000000 0.000000 0.000000 7.125000 0.000000 0.000000 75.042606 74.556546 -59.073453
7.717662 15.551652 22.408748 -179.288000 6.081840 -178.381387 0.000000 0.000000 0.000000 -25.744657 -25.060426 4.277731 1.265783 7.131498 20.105468 1.280373 13.111280 -29.695861 0.181791 -2.734501 -7.541154 0.000000 0.000000 0.000000 27.373219 20.458941 7.890442 -0.405517 -4.088209 11.324947 1.741383 -26.528369 -25.279626 -0.013112 -0.730235 2.006847 0.901156 1.849008 8.367548 0.074071 2.732250 -5.207419 -0.901311 1.307615 -10.233549 -7.336811 -2.551553 -4.643614 7.572916 -3.207143 2.647002 3.710770 -1.499772 1.963531 0.000000 0.000000 0.000000 3.448157 19.314277 -36.737574 20.050390 -30.703026 5.557040 0.614765 8.848076 33.527284 0.000000 0.000000 0.000000 -7.125000 0.000000 0.000000 -17.467980 -2.214643 -19.022837 0.000000 0.000000 0.000000 -4.832494 19.634285 46.702231 -21.085555 -31.928108 -6.095145 -6.722703 20.971027 55.478707 0.000000 0.000000 0.000000 7.125000 0.000000 0.000000 77.744013 74.311901 -61.387385
7.720167 15.551800 22.408306 -179.283583 5.869513 -178.452855 0.000000 0.000000 0.000000 -25.759592 -25.124406 4.353712 1.268288 7.138127 20.125208 1.283322 13.075897 -29.684611 0.197492 -2.861343 -7.893090 0.000000 0.000000 0.000000 27.430461 20.375748 8.000657 -0.403748 -4.079442 11.300231 1.714505 -26.508314 -25.494901 -0.034653 -1.182076 3.250157 0.945869 1.860543 8.487235 0.051865 2.749130 -5.178039 -0.956840 1.309604 -10.268841 -7.301303 -2.572282 -4.649806 7.516688 -3.295547 2.603207 3.679277 -1.573717 1.953949 0.000000 0.000000 0.000000 3.508912 19.300260 -36.841421 20.025550 -30.673181 5.544417 0.838211 8.592519 33.647503 0.000000 0.000000 0.000000 -7.125000 0.000000 0.000000 -17.350323 -2.347761 -18.921526 0.000000 0.000000 0.000000 -4.808472 19.607277 46.657063 -21.121132 -31.969473 -6.113984 -5.652675 20.315632 55.667956 0.000000 0.000000 0.000000 7.125000 0.000000 0.000000 78.706013 73.956288 -61.907483
7.722735 15.550874 22.408116 -179.274427 5.679451 -178.469159 0.000000 0.000000 0.000000 -25.730746 -25.175519 4.335565 1.273123 7.151275 20.164204 1.322920 12.799770 -29.709867 0.162916 -2.598111 -7.161779 0.000000 0.000000 0.000000 27.485487 20.413048 8.093256 -0.400523 -4.063064 11.254186 1.718169 -26.602215 -25.682256 -0.055688 -1.520636 4.182719 0.913327 1.859403 8.543820 0.095947 2.745337 -5.145987 -0.892211 1.310926 -10.270895 -7.281829 -2.602549 -4.683268 7.367100 -3.345109 2.531383 3.619859 -1.609783 1.935193 0.000000 0.000000 0.000000 3.383548 19.261259 -36.693351 20.017351 -30.663288 5.540226 0.859357 8.621461 33.779370 0.000000 0.000000 0.000000 -7.125000 0.000000 0.000000 -17.341372 -2.475307 -18.948647 0.000000 0.000000 0.000000 -4.881192 19.496184 46.726964 -21.122608 -31.971187 -6.114770 -5.212961 19.828091 55.367397 0.000000 0.000000 0.000000 7.125000 0.000000 0.000000 77.798945 73.751369 -60.789397
7.724236 15.549091 22.408100 -179.306130 5.444217 -178.474679 0.000000 0.000000 0.000000 -25.752267 -25.297352 4.315859 1.279201 7.167504 20.212623 1.357597 12.539427 -29.718463 0.127277 -2.298644 -6.331741 0.000000 0.000000 0.000000 27.483256 20.352885 8.152640 -0.394699 -4.033896 11.172110 1.779377 -26.808165 -25.581582 -0.046000 -1.384221 3.806552 0.850152 1.831917 8.507031 0.134596 2.697339 -5.061152 -0.803274 1.293399 -10.160429 -7.251160 -2.627883 -4.813839 7.244608 -3.363547 2.495601 3.569119 -1.617701 1.944459 0.000000 0.000000 0.000000 3.217045 19.169304 -36.419724 20.056510 -30.710461 5.560183 0.619297 8.843590 33.654315 0.000000 0.000000 0.000000 -7.125000 0.000000 0.000000 -17.467534 -2.336141 -19.058762 0.000000 0.000000 0.000000 -4.959641 19.274039 46.809627 -21.019586 -31.851237 -6.060261 -5.495844 20.165550 54.953074 0.000000 0.000000 0.000000 7.125000 0.000000 0.000000 76.296161 73.780319 -59.374526
